<svg viewBox="0 0 32 32" xmlns="http://www.w3.org/2000/svg">
  <path fill="#25D366" d="M16 0C7.2 0 0 7.2 0 16c0 2.8.7 5.5 2.1 7.9L0 32l8.4-2.2C10.7 31.3 13.3 32 16 32c8.8 0 16-7.2 16-16S24.8 0 16 0z"></path>
  <path fill="#FFFFFF" d="M23.3 19.5c-.4-.2-2.3-1.1-2.6-1.3-.4-.1-.6-.2-.9.2-.3.4-1 1.3-1.2 1.5-.2.2-.4.3-.8.1-2.4-1.2-4-2.2-5.6-4.9-.4-.7.4-.7 1.2-2.2.1-.3.1-.5 0-.7-.1-.2-.9-2.1-1.2-2.9-.3-.7-.6-.6-.9-.7-.2 0-.5 0-.7 0-.3 0-.7.1-1 .5-.4.4-1.4 1.3-1.4 3.3 0 1.9 1.4 3.8 1.6 4.1.2.3 2.8 4.3 6.8 6 1 .4 1.7.7 2.3.9.9.3 1.8.3 2.4.2.7-.1 2.3-.9 2.6-1.8.3-.9.3-1.7.2-1.8-.1-.2-.4-.3-.8-.5z"></path>
</svg>